<?xml version="1.0" encoding="iso-8859-1"?>
<!-- Generator: Adobe Illustrator 19.0.0, SVG Export Plug-In . SVG Version: 6.00 Build 0)  -->
<svg version="1.1" id="Layer_1" xmlns="http://www.w3.org/2000/svg" xmlns:xlink="http://www.w3.org/1999/xlink" x="0px" y="0px"
	 viewBox="0 0 512.003 512.003" style="enable-background:new 0 0 512.003 512.003;" xml:space="preserve">
<path style="fill:#FECE00;" d="M66.24,226.345l-39.104-41.439c-6.407-6.79-8.721-16.474-6.076-25.427l4.753-16.087
	c1.527-5.169,1.86-10.617,0.974-15.934l0,0c-1.893-11.358,1.827-22.931,9.984-31.059L79.34,53.982
	c3.536-3.523,5.523-8.309,5.523-13.3l0,0c0-6.183,3.044-11.969,8.139-15.472l15.42-10.601c4.94-3.396,11.205-4.229,16.861-2.242
	l10.133,3.56c3.324,1.168,6.909,1.377,10.345,0.604l39.142-8.807c5.057-1.138,10.358-0.016,14.52,3.072l3.915,2.905
	c5.917,4.39,8.52,11.97,6.548,19.069l0,0l45.511,18.409c7.672,3.103,16.464,1.14,22.087-4.933l0,0
	c4.383-4.733,10.856-6.94,17.217-5.869l47.395,7.977c5.418,0.912,10.183,4.109,13.081,8.777l65.46,105.436
	c9.599,15.462,27.274,23.978,45.348,21.852l11.134-1.31c7.924-0.932,14.887,5.259,14.887,13.238l0,0c0,3.01-1.019,5.931-2.89,8.288
	l-71.995,90.68c-6.787,8.549-8.854,19.924-5.508,30.314l4.354,13.521c1.804,5.602,2.611,11.477,2.385,17.357l0,0
	c-0.609,15.831-8.638,30.45-21.67,39.458l-23.808,16.456l1.014,6.931c1.719,11.746-4.654,23.185-15.546,27.905l-1.178,0.51
	l-6.319,18.055c-1.852,5.291-5.28,9.889-9.823,13.174l-23.839,17.238c-7.625,5.514-16.795,8.482-26.205,8.482l0,0
	c-18.492,0-35.078-11.382-41.729-28.637l-21.859-56.707c-7.958-20.644-8.918-43.329-2.733-64.571l0.906-3.112
	c2.956-10.152,1.769-21.062-3.301-30.341l-24.871-45.518c-1.224-2.24-1.553-4.862-0.92-7.335l1.885-7.369
	c2.653-10.37-0.8-21.347-8.911-28.332l-0.968-0.834c-5.963-5.135-13.801-7.542-21.618-6.638l-78.536,9.075
	C80.102,235.347,71.918,232.362,66.24,226.345z"/>
<g>
	<path style="fill:#FE8901;" d="M208.697,84.218c3.52-16.184,7.14-32.779,20.803-43.513l-19.615-7.934
		c0.184-0.662,0.315-1.329,0.42-1.996c-14.971,6.484-34.991,19.378-38.91,42.811c-3.183,19.036-13.373,34.403-24.162,50.671
		c-15.409,23.237-32.874,49.574-34.544,94.131c-0.173,4.614-0.426,9.033-0.743,13.28l28.985-3.349
		c3.452-28.306,13.268-66.686,40.412-89.608C200.33,122.677,204.583,103.125,208.697,84.218z"/>
	<path style="fill:#FE8901;" d="M337.748,141.386c0.305,2.323,0.883,3.287,1.062,3.442c0.009,0.001,2.392,0.961,10.875-3.188
		c6.837-3.343,14.841-8.555,23.315-14.073c6.218-4.049,12.529-8.154,18.655-11.681L363.36,70.311
		C350.76,92.079,335.417,123.629,337.748,141.386z"/>
	<path style="fill:#FE8901;" d="M119.388,78.065c-4.814,42.317-60.814,76.645-98.615,95.198c0.93,3.721,2.67,7.241,5.165,10.281
		c23.976-12.394,47.287-20.488,56.079-5.887c7.446,12.364,3.564,34.294-1.732,56.419c2.616,0.511,5.323,0.635,8.036,0.322
		l8.873-1.025c0.409-4.899,0.727-10.068,0.931-15.531c1.824-48.65,21.308-78.031,36.963-101.638
		c10.337-15.586,19.263-29.047,21.934-45.02c5.236-31.31,31.166-47.219,49.324-54.65c-0.877-1.042-1.882-1.994-3.008-2.83
		l-3.915-2.905c-4.162-3.088-9.464-4.21-14.52-3.072l-19.92,4.482C147.35,23.261,123.229,44.292,119.388,78.065z"/>
	<path style="fill:#FE8901;" d="M51.45,187.894c-5.111,1.897-10.358,4.305-15.17,6.703l29.96,31.748
		c0.238,0.252,0.486,0.49,0.732,0.732c3.318-14.285,7.118-34.336,2.561-41.902C69.143,184.527,64.698,182.975,51.45,187.894z"/>
	<path style="fill:#FE8901;" d="M305.264,42.156c-17.709,23.616-59.314,85.834-49.872,137.961
		c6.437,35.539,4.924,79.063-4.151,119.41c-6.789,30.184-17.251,56.156-30.312,75.79c-0.876,11.423,0.211,22.934,3.209,34.042
		c24.012-20.932,43.443-56.81,55.219-102.338c10.822-41.835,14.306-88.453,9.095-121.661
		c-7.774-49.538,19.465-112.007,33.697-140.362L305.264,42.156z"/>
	<path style="fill:#FE8901;" d="M222.937,87.315c-4.197,19.291-9.419,43.3-32.192,62.529c-22.38,18.898-31.308,51.352-34.813,76.741
		l10.924-1.262c3.589-0.415,7.18-0.124,10.594,0.801c7.758-38.104,16.64-46.163,23.865-48.469c5.923-1.891,11.778,0.02,16.063,5.241
		c11.684,14.239,11.124,53.053,10.675,64.61c-0.97,24.9-5.054,47.822-11.217,63.917l5.424,9.926
		c1.927,3.528,3.29,7.292,4.081,11.159c17.504-46.156,22.672-105.841,14.711-149.793c-9.695-53.526,26.612-113.407,47.352-142.338
		c-4.135,0.684-7.995,2.71-10.921,5.871l0,0c-5.623,6.073-14.414,8.036-22.087,4.933l-8.805-3.562
		C230.978,53.795,227.474,66.458,222.937,87.315z"/>
	<path style="fill:#FE8901;" d="M372.874,412.422l17.377-12.011c-24.873-44.566-26.763-119.371-9.95-165.772
		c9.051-24.979,34.974-42.463,60.721-54.141c-5.485-2.503-10.481-6.059-14.679-10.518c-23.85,8.609-47.889,22.185-61.183,43.505
		c-29.551,47.39-35.093,172.374-13.267,249.34l5.27-15.057l1.178-0.51c10.893-4.72,17.265-16.159,15.546-27.905L372.874,412.422z"/>
	<path style="fill:#FE8901;" d="M477.119,183.11l-3.052,0.359c-29.285,9.44-69.616,27.303-80.064,56.136
		c-15.189,41.916-13.786,111.406,8.034,152.069c9.845-9.012,15.795-21.64,16.315-35.165l0,0c0.226-5.881-0.581-11.755-2.385-17.357
		l-4.354-13.521c-3.346-10.39-1.279-21.765,5.508-30.314l71.995-90.68c1.871-2.357,2.89-5.278,2.89-8.288l0,0
		C492.006,188.369,485.043,182.178,477.119,183.11z"/>
	<path style="fill:#FE8901;" d="M22.01,156.263c6.419-3.313,13.18-7.017,19.96-11.073c38.689-23.139,60.452-46.921,62.938-68.773
		c2.581-22.687,13.277-43.334,31.111-60.301c-0.201-0.063-0.404-0.119-0.604-0.189l-10.133-3.56
		c-5.656-1.987-11.921-1.154-16.861,2.242L93.001,25.21c-5.095,3.503-8.139,9.289-8.139,15.472c0,4.991-1.987,9.777-5.523,13.3
		L36.77,96.401c-8.157,8.128-11.877,19.7-9.984,31.059c0.886,5.316,0.553,10.765-0.974,15.934L22.01,156.263z"/>
	<path style="fill:#FE8901;" d="M352.794,205.775c14.666-23.52,39.725-38.57,64.755-48.181l-18.209-29.328
		c-5.88,3.373-12.184,7.473-18.388,11.513c-16.024,10.433-30.257,19.7-41.384,19.701c-2.447,0-4.742-0.448-6.874-1.429
		c-3.62-1.667-8.19-5.583-9.396-14.768c-1.923-14.654,4.167-35.892,18.1-63.126c4.7-9.188,9.478-17.46,13.282-23.737
		c-2.929-4.271-7.453-7.201-12.584-8.065l-4.834-0.814C324.633,72.18,295.412,135.71,302.85,183.1
		c5.501,35.048,1.905,83.93-9.382,127.57c-9.434,36.472-28.187,85.12-64.262,113.413l14.56,37.771
		c2.632-5.279,5.692-11.101,9.031-16.887c16.083-27.863,29.455-39.199,42.075-35.679c7.357,2.053,18.416,9.892,29.46,54.071
		c2.117,8.467,3.865,16.779,5.232,23.923l11.458-8.285c0.185-0.134,0.357-0.283,0.538-0.421
		C316.432,404.211,316.805,263.491,352.794,205.775z"/>
	<path style="fill:#FE8901;" d="M198.354,261.127l-1.885,7.369c-0.633,2.473-0.304,5.095,0.92,7.335l9.766,17.874
		c7.656-29.933,8.627-73.127,2.501-93.737c-1.735-5.836-3.434-7.799-4.037-8.346c-1.301,0.765-8.091,6.414-14.857,42.394
		C197.919,241.017,200.858,251.34,198.354,261.127z"/>
	<path style="fill:#FE8901;" d="M310.167,466.791c-10.138-40.5-18.847-43.363-19.212-43.465
		c-2.125-0.597-10.831,3.453-25.538,28.928c-5.984,10.365-11.11,21.055-14.288,28.029c7.567,14.874,22.904,24.434,39.849,24.434
		c9.123,0,18.017-2.798,25.5-7.993C315.029,488.561,312.904,477.72,310.167,466.791z"/>
</g>
<path style="fill:#EAB200;" d="M477.119,183.11l-11.134,1.31c-18.075,2.126-35.749-6.39-45.349-21.852l-65.46-105.436
	c-2.898-4.668-7.663-7.865-13.081-8.777L294.7,40.378c-5.18-0.872-10.433,0.43-14.572,3.499l26.609,4.479
	c5.418,0.912,10.183,4.109,13.081,8.777l65.46,105.435c33.324,48.613,55.983,27.287,59.714,42.983
	c1.012,4.257-0.111,8.743-2.8,12.195l-60.43,77.571c-6.787,8.549-8.854,19.924-5.508,30.314l3.689,11.455
	c1.678,5.21,3.05,13.95,3.05,19.423l0,0c0,15.33-7.527,29.682-20.138,38.399l-19.578,13.532c-3.529,2.439-5.369,6.669-4.748,10.913
	l0,0c1.719,11.746-4.654,23.186-15.546,27.906l-1.178,0.51l-6.319,18.055c-1.852,5.291-5.28,9.889-9.823,13.174l-23.839,17.238
	c-2.671,1.932-5.536,3.543-8.53,4.832c5.477,2.36,11.472,3.65,17.684,3.65c9.41,0,18.579-2.968,26.205-8.482l23.839-17.238
	c4.543-3.285,7.971-7.882,9.823-13.174l6.319-18.055l1.178-0.51c10.893-4.72,17.266-16.159,15.546-27.906l-1.014-6.931l25.34-17.514
	c12.611-8.716,20.138-23.069,20.138-38.399l0,0c0-5.473-1.373-14.214-3.05-19.423l-3.689-11.455
	c-3.346-10.39-1.279-21.765,5.508-30.314l71.995-90.681c1.871-2.357,2.89-5.278,2.89-8.288l0,0
	C492.006,188.369,485.043,182.178,477.119,183.11z"/>
<g>
	<path style="fill:#E26B00;" d="M293.385,504.644c0.349-0.019,0.698-0.035,1.046-0.062c0.294-0.023,0.586-0.056,0.879-0.084
		c0.276-0.027,0.553-0.05,0.828-0.082c0.336-0.039,0.67-0.088,1.004-0.135c0.229-0.032,0.458-0.059,0.686-0.095
		c0.371-0.058,0.741-0.125,1.11-0.192c0.187-0.034,0.376-0.064,0.563-0.1c0.398-0.077,0.793-0.164,1.188-0.253
		c0.156-0.035,0.313-0.066,0.469-0.103c0.423-0.099,0.843-0.207,1.262-0.319c0.124-0.033,0.248-0.063,0.371-0.097
		c0.443-0.121,0.882-0.252,1.32-0.387c0.099-0.03,0.198-0.059,0.297-0.09c0.459-0.145,0.915-0.299,1.369-0.458
		c0.074-0.026,0.149-0.051,0.223-0.077c0.472-0.169,0.942-0.347,1.409-0.531c0.054-0.021,0.108-0.042,0.162-0.063
		c0.483-0.193,0.962-0.396,1.439-0.606c0.036-0.016,0.072-0.031,0.108-0.047c0.49-0.218,0.976-0.444,1.458-0.68
		c0.022-0.011,0.043-0.021,0.065-0.031c0.493-0.241,0.981-0.492,1.465-0.752c0.011-0.006,0.022-0.012,0.033-0.018
		c0.492-0.265,0.98-0.539,1.463-0.822c0.003-0.002,0.005-0.003,0.008-0.005c0.976-0.573,1.931-1.184,2.865-1.832l0.001-0.001
		c-1.172-6.6-2.786-14.953-4.807-23.687c-1.674,2.272-3.694,4.287-6.007,5.96l-23.839,17.238c-2.671,1.931-5.535,3.543-8.529,4.831
		c0.02,0.009,0.04,0.017,0.06,0.025c0.647,0.278,1.301,0.54,1.962,0.788c0.028,0.01,0.055,0.021,0.083,0.032
		c0.688,0.256,1.382,0.496,2.084,0.718c0.012,0.004,0.024,0.007,0.036,0.011c0.663,0.21,1.333,0.402,2.007,0.581
		c0.072,0.019,0.144,0.039,0.216,0.058c0.694,0.18,1.393,0.346,2.098,0.494c0.026,0.005,0.052,0.01,0.078,0.015
		c0.648,0.134,1.301,0.251,1.958,0.357c0.13,0.021,0.261,0.043,0.392,0.062c0.687,0.104,1.377,0.196,2.072,0.269
		c0.04,0.004,0.08,0.006,0.12,0.01c0.64,0.065,1.283,0.113,1.93,0.15c0.173,0.01,0.345,0.02,0.518,0.027
		c0.687,0.032,1.377,0.054,2.07,0.054c0.579,0,1.157-0.012,1.733-0.034C292.936,504.674,293.16,504.656,293.385,504.644z"/>
	<path style="fill:#E26B00;" d="M306.737,48.355c4.226,0.711,8.04,2.826,10.895,5.931c1.6-3.391,3.123-6.508,4.518-9.288
		l-16.886-2.842c-1.195,1.593-2.501,3.367-3.89,5.297L306.737,48.355z"/>
	<path style="fill:#E26B00;" d="M366.258,131.932c2.205-1.414,4.454-2.876,6.741-4.365c6.218-4.049,12.529-8.154,18.655-11.681
		l-20.725-33.382l-7.57-12.193c-5.352,9.246-11.194,20.258-15.971,31.227L366.258,131.932z"/>
	<path style="fill:#E26B00;" d="M331.956,440.834c-2.448,2.691-5.473,4.908-8.973,6.425l-1.178,0.51l-0.973,2.781
		c1.164,3.895,2.332,8.138,3.5,12.809c2.117,8.467,3.865,16.779,5.232,23.923l11.458-8.285c0.185-0.134,0.357-0.283,0.538-0.421
		C337.763,467.341,334.553,454.584,331.956,440.834z"/>
	<path style="fill:#E26B00;" d="M341.398,80.157c4.7-9.188,9.478-17.46,13.282-23.737c-0.731-1.065-1.561-2.047-2.475-2.935
		c-0.007-0.006-0.014-0.012-0.02-0.019c-0.445-0.431-0.911-0.839-1.394-1.224c-0.04-0.032-0.083-0.061-0.123-0.093
		c-0.453-0.355-0.921-0.692-1.404-1.005c-0.098-0.063-0.201-0.118-0.301-0.18c-0.437-0.271-0.88-0.533-1.338-0.768
		c-0.183-0.093-0.373-0.171-0.559-0.258c-0.391-0.185-0.782-0.372-1.186-0.531c-0.309-0.121-0.628-0.215-0.943-0.32
		c-0.301-0.1-0.596-0.214-0.903-0.299c-0.628-0.174-1.267-0.319-1.916-0.429c-0.007-0.001-0.014-0.003-0.021-0.005l-4.834-0.814
		c-2.777,5.417-6.355,12.715-10.17,21.306l11.074,17.836C339.197,84.543,340.262,82.378,341.398,80.157z"/>
	<path style="fill:#E26B00;" d="M385.278,162.568c1.918,2.798,3.799,5.354,5.645,7.709c8.553-5.03,17.59-9.213,26.626-12.683
		l-18.209-29.328c-5.88,3.373-12.184,7.473-18.388,11.513c-2.378,1.548-4.711,3.065-7.006,4.535L385.278,162.568z"/>
	<path style="fill:#E26B00;" d="M417.386,193.178c7.551-4.826,15.602-9.036,23.636-12.68c-2.055-0.938-4.041-2.023-5.942-3.249
		c-0.004-0.002-0.007-0.004-0.01-0.007c-3.17-2.044-6.102-4.476-8.724-7.26c0-0.001-0.001-0.001-0.002-0.002
		c-8.633,3.116-17.288,6.887-25.452,11.437C406.912,187.201,412.433,190.823,417.386,193.178z"/>
	<path style="fill:#E26B00;" d="M368.109,439.909c0.466-0.563,0.908-1.142,1.325-1.741c0.1-0.144,0.212-0.28,0.31-0.426
		c0.107-0.161,0.198-0.331,0.302-0.494c0.652-1.025,1.247-2.086,1.751-3.192c0.261-0.573,0.495-1.159,0.715-1.75
		c0.026-0.07,0.059-0.137,0.085-0.207c0.389-1.073,0.689-2.18,0.937-3.302c0.058-0.265,0.132-0.526,0.183-0.793
		c0.013-0.068,0.018-0.137,0.03-0.204c0.24-1.334,0.385-2.693,0.415-4.07c0.03-1.394-0.058-2.805-0.256-4.22
		c-0.007-0.053-0.009-0.105-0.016-0.158l-1.014-6.931l17.377-12.011c-4.342-7.779-7.967-16.494-10.931-25.804
		c-3.402,8.083-9.044,15.171-16.464,20.3l-21.08,14.57c2.201,19.113,5.561,37.279,10.118,53.349l5.27-15.057l1.178-0.51
		C362.233,445.572,365.534,443.018,368.109,439.909z"/>
	<path style="fill:#E26B00;" d="M491.691,193.45c-1.235-5.586-5.965-9.792-11.657-10.366c-0.949-0.096-1.924-0.09-2.915,0.026
		l-3.052,0.359c-11.47,3.697-24.631,8.694-37.031,15.129c4.139,0.933,6.862,2.352,7.956,6.953c1.012,4.257-0.111,8.743-2.801,12.195
		l-57.904,74.329c-1.9,35.1,3.666,73.352,17.75,99.599c9.845-9.012,15.795-21.64,16.315-35.165l0,0
		c0-5.473-1.372-14.212-3.05-19.422l-3.689-11.456c-3.346-10.39-1.279-21.765,5.508-30.314l71.995-90.681
		c0.117-0.147,0.221-0.303,0.331-0.455c0.324-0.446,0.628-0.904,0.893-1.383c0.005-0.009,0.012-0.018,0.017-0.028
		c0.641-1.166,1.092-2.423,1.361-3.723c0.183-0.883,0.288-1.785,0.288-2.698l0,0C492.006,195.35,491.897,194.381,491.691,193.45z"/>
</g>
<g>
	<path style="fill:#121419;" d="M290.978,512.003c-21.348,0-40.85-13.383-48.527-33.303l-21.86-56.707
		c-8.482-22.002-9.523-46.588-2.931-69.229l0.906-3.112c2.434-8.359,1.474-17.17-2.7-24.81l-24.871-45.518
		c-2.116-3.873-2.678-8.361-1.584-12.635l1.885-7.369c1.98-7.741-0.551-15.79-6.606-21.005l-0.967-0.832
		c-4.409-3.797-10.256-5.593-16.028-4.923l-78.538,9.074c-10.45,1.208-20.998-2.639-28.216-10.289l-39.104-41.439
		c-8.157-8.643-11.133-21.093-7.765-32.492l4.753-16.087c1.207-4.087,1.475-8.469,0.774-12.671
		c-2.276-13.657,2.22-27.645,12.028-37.418l11.29-11.25c2.85-2.841,7.464-2.833,10.305,0.018s2.832,7.464-0.018,10.305l-11.29,11.25
		c-6.474,6.452-9.443,15.684-7.94,24.699c1.062,6.366,0.656,13.003-1.173,19.196l-4.754,16.088
		c-1.903,6.441-0.221,13.476,4.388,18.36l39.105,41.44c4.078,4.323,10.038,6.495,15.944,5.814l78.537-9.074
		c9.811-1.133,19.727,1.912,27.209,8.356l0.967,0.832c10.283,8.854,14.58,22.518,11.217,35.661l-1.885,7.369
		c-0.176,0.688-0.085,1.411,0.256,2.036l24.871,45.518c6.035,11.046,7.421,23.785,3.903,35.871l-0.906,3.112
		c-5.705,19.594-4.805,40.872,2.536,59.913l21.86,56.708c5.527,14.338,19.564,23.971,34.93,23.971c7.926,0,15.511-2.455,21.935-7.1
		l23.84-17.238c3.353-2.425,5.847-5.77,7.214-9.676l6.319-18.055c0.672-1.919,2.115-3.471,3.981-4.279l1.178-0.511
		c7.853-3.403,12.472-11.694,11.233-20.164l-1.014-6.931c-0.401-2.741,0.787-5.473,3.066-7.049l23.807-16.456
		c11.086-7.663,18.015-20.277,18.533-33.744c0.194-5.044-0.493-10.038-2.04-14.844l-4.355-13.52
		c-4.102-12.739-1.583-26.6,6.737-37.079l24.931-31.401c2.503-3.151,7.087-3.677,10.237-1.176c3.152,2.502,3.678,7.086,1.176,10.238
		l-24.931,31.401c-5.285,6.656-6.884,15.46-4.28,23.551l4.355,13.52c2.071,6.434,2.991,13.119,2.731,19.871
		c-0.694,18.028-9.968,34.914-24.808,45.172l-20.085,13.883l0.359,2.454c2.095,14.322-5.287,28.357-18.085,34.815l-5.29,15.118
		c-2.355,6.729-6.654,12.493-12.431,16.671l-23.84,17.238C312.528,508.592,301.99,512.003,290.978,512.003z"/>
	<path style="fill:#121419;" d="M460.933,247.415c-1.587,0-3.186-0.517-4.526-1.58c-3.152-2.502-3.678-7.086-1.176-10.238
		l28.178-35.492c0.844-1.064,1.31-2.398,1.31-3.757c0-1.75-0.72-3.353-2.027-4.516c-1.307-1.163-2.988-1.69-4.722-1.486
		l-11.134,1.31c-20.783,2.441-41.35-7.464-52.39-25.245l-65.46-105.436c-1.794-2.889-4.746-4.87-8.1-5.435l-47.395-7.978
		c-3.949-0.665-7.937,0.694-10.66,3.634c-7.633,8.24-19.754,10.947-30.167,6.737l-45.51-18.409c-3.435-1.389-5.28-5.135-4.288-8.704
		c1.157-4.164-0.398-8.692-3.869-11.268l-3.915-2.905c-2.461-1.825-5.59-2.49-8.58-1.815l-39.142,8.806
		c-4.775,1.075-9.741,0.786-14.36-0.837l-10.134-3.561c-3.448-1.213-7.305-0.699-10.317,1.372l-15.42,10.601
		c-3.119,2.144-4.98,5.684-4.98,9.468c0,6.877-2.794,13.606-7.666,18.461l-9.968,9.933c-2.851,2.839-7.465,2.832-10.305-0.019
		c-2.841-2.851-2.832-7.464,0.018-10.305l9.968-9.932c2.148-2.14,3.38-5.107,3.38-8.138c0-8.584,4.223-16.613,11.297-21.476
		l15.42-10.601c6.833-4.698,15.582-5.861,23.404-3.113l10.133,3.561c2.036,0.715,4.225,0.843,6.33,0.369l39.142-8.807
		c7.133-1.606,14.591-0.027,20.462,4.329l3.915,2.905c6.461,4.794,10.138,12.425,10.129,20.265l40.321,16.31
		c4.834,1.956,10.464,0.698,14.009-3.129c6.071-6.558,14.952-9.589,23.773-8.104l47.396,7.978
		c7.477,1.259,14.061,5.676,18.061,12.118l65.461,105.436c8.072,13.001,23.11,20.248,38.305,18.459l11.135-1.31
		c5.84-0.689,11.712,1.16,16.108,5.069c4.396,3.908,6.917,9.524,6.917,15.406c0,4.635-1.587,9.187-4.47,12.818l-28.178,35.493
		C465.206,246.47,463.079,247.414,460.933,247.415z"/>
</g>
<g>
</g>
<g>
</g>
<g>
</g>
<g>
</g>
<g>
</g>
<g>
</g>
<g>
</g>
<g>
</g>
<g>
</g>
<g>
</g>
<g>
</g>
<g>
</g>
<g>
</g>
<g>
</g>
<g>
</g>
</svg>
